<svg xmlns="http://www.w3.org/2000/svg" width="96" height="96" viewBox="0 0 96 96">
  <rect width="100%" height="100%" fill="#05070a"/>
  <g transform="translate(8,8) scale(0.8)">
    <rect x="0" y="0" width="80" height="80" rx="10" fill="rgba(0,255,200,0.06)"/>
    <g fill="#00ffcc" stroke="#002629" stroke-width="0.5">
      <path d="M40 14c-8 0-14 8-14 18s6 18 14 18 14-8 14-18-6-18-14-18z"/>
      <path d="M26 36c0 6 6 10 14 10s14-4 14-10" fill-opacity="0.08"/>
    </g>
    <g transform="translate(14,18)" fill="#002629">
      <rect x="6" y="6" width="10" height="10" rx="3" fill="#001"/>
      <rect x="30" y="6" width="10" height="10" rx="3" fill="#001"/>
      <rect x="14" y="34" width="18" height="8" rx="3" fill="#001"/>
    </g>
    <text x="40" y="72" font-family="'Share Tech Mono', monospace" font-size="10" fill="#00ffcc" text-anchor="middle">MANTIS</text>
  </g>
</svg>